<?xml version="1.0" encoding="utf-8" standalone="no"?>
<!DOCTYPE svg PUBLIC "-//W3C//DTD SVG 1.1//EN"
  "http://www.w3.org/Graphics/SVG/1.1/DTD/svg11.dtd">
<svg xmlns:xlink="http://www.w3.org/1999/xlink" width="857.283594pt" height="604.559688pt" viewBox="0 0 857.283594 604.559688" xmlns="http://www.w3.org/2000/svg" version="1.1">
 <metadata>
  <rdf:RDF xmlns:dc="http://purl.org/dc/elements/1.1/" xmlns:cc="http://creativecommons.org/ns#" xmlns:rdf="http://www.w3.org/1999/02/22-rdf-syntax-ns#">
   <cc:Work>
    <dc:type rdf:resource="http://purl.org/dc/dcmitype/StillImage"/>
    <dc:date>2024-01-08T13:19:17.784305</dc:date>
    <dc:format>image/svg+xml</dc:format>
    <dc:creator>
     <cc:Agent>
      <dc:title>Matplotlib v3.5.1, https://matplotlib.org/</dc:title>
     </cc:Agent>
    </dc:creator>
   </cc:Work>
  </rdf:RDF>
 </metadata>
 <defs>
  <style type="text/css">*{stroke-linejoin: round; stroke-linecap: butt}</style>
 </defs>
 <g id="figure_1">
  <g id="patch_1">
   <path d="M 0 604.559688 
L 857.283594 604.559688 
L 857.283594 0 
L 0 0 
z
" style="fill: #ffffff"/>
  </g>
  <g id="axes_1">
   <g id="patch_2">
    <path d="M 60.136875 561.6 
L 841.336875 561.6 
L 841.336875 7.2 
L 60.136875 7.2 
z
" style="fill: #eaeaf2"/>
   </g>
   <g id="matplotlib.axis_1">
    <g id="xtick_1">
     <g id="line2d_1">
      <path d="M 60.136875 561.6 
L 60.136875 7.2 
" clip-path="url(#pd3b67ff0b7)" style="fill: none; stroke: #ffffff; stroke-linecap: round"/>
     </g>
     <g id="text_1">
      <text style="fill: #262626; font: 11px 'sans-serif'; text-anchor: middle" x="60.136875" y="579.458281" transform="rotate(-0, 60.136875, 579.458281)">0.0</text>
     </g>
    </g>
    <g id="xtick_2">
     <g id="line2d_2">
      <path d="M 216.376875 561.6 
L 216.376875 7.2 
" clip-path="url(#pd3b67ff0b7)" style="fill: none; stroke: #ffffff; stroke-linecap: round"/>
     </g>
     <g id="text_2">
      <text style="fill: #262626; font: 11px 'sans-serif'; text-anchor: middle" x="216.376875" y="579.458281" transform="rotate(-0, 216.376875, 579.458281)">0.2</text>
     </g>
    </g>
    <g id="xtick_3">
     <g id="line2d_3">
      <path d="M 372.616875 561.6 
L 372.616875 7.2 
" clip-path="url(#pd3b67ff0b7)" style="fill: none; stroke: #ffffff; stroke-linecap: round"/>
     </g>
     <g id="text_3">
      <text style="fill: #262626; font: 11px 'sans-serif'; text-anchor: middle" x="372.616875" y="579.458281" transform="rotate(-0, 372.616875, 579.458281)">0.4</text>
     </g>
    </g>
    <g id="xtick_4">
     <g id="line2d_4">
      <path d="M 528.856875 561.6 
L 528.856875 7.2 
" clip-path="url(#pd3b67ff0b7)" style="fill: none; stroke: #ffffff; stroke-linecap: round"/>
     </g>
     <g id="text_4">
      <text style="fill: #262626; font: 11px 'sans-serif'; text-anchor: middle" x="528.856875" y="579.458281" transform="rotate(-0, 528.856875, 579.458281)">0.6</text>
     </g>
    </g>
    <g id="xtick_5">
     <g id="line2d_5">
      <path d="M 685.096875 561.6 
L 685.096875 7.2 
" clip-path="url(#pd3b67ff0b7)" style="fill: none; stroke: #ffffff; stroke-linecap: round"/>
     </g>
     <g id="text_5">
      <text style="fill: #262626; font: 11px 'sans-serif'; text-anchor: middle" x="685.096875" y="579.458281" transform="rotate(-0, 685.096875, 579.458281)">0.8</text>
     </g>
    </g>
    <g id="xtick_6">
     <g id="line2d_6">
      <path d="M 841.336875 561.6 
L 841.336875 7.2 
" clip-path="url(#pd3b67ff0b7)" style="fill: none; stroke: #ffffff; stroke-linecap: round"/>
     </g>
     <g id="text_6">
      <text style="fill: #262626; font: 11px 'sans-serif'; text-anchor: middle" x="841.336875" y="579.458281" transform="rotate(-0, 841.336875, 579.458281)">1.0</text>
     </g>
    </g>
    <g id="text_7">
     <text style="fill: #262626; font: 12px 'sans-serif'; text-anchor: middle" x="450.736875" y="594.864063" transform="rotate(-0, 450.736875, 594.864063)">Kappa</text>
    </g>
   </g>
   <g id="matplotlib.axis_2">
    <g id="ytick_1">
     <g id="text_8">
      <text style="fill: #262626; font: 11px 'sans-serif'; text-anchor: end" x="50.636875" y="45.932031" transform="rotate(-0, 50.636875, 45.932031)">C1_L</text>
     </g>
    </g>
    <g id="ytick_2">
     <g id="text_9">
      <text style="fill: #262626; font: 11px 'sans-serif'; text-anchor: end" x="50.636875" y="115.232031" transform="rotate(-0, 50.636875, 115.232031)">C1_R</text>
     </g>
    </g>
    <g id="ytick_3">
     <g id="text_10">
      <text style="fill: #262626; font: 11px 'sans-serif'; text-anchor: end" x="50.636875" y="184.532031" transform="rotate(-0, 50.636875, 184.532031)">C2_L</text>
     </g>
    </g>
    <g id="ytick_4">
     <g id="text_11">
      <text style="fill: #262626; font: 11px 'sans-serif'; text-anchor: end" x="50.636875" y="253.832031" transform="rotate(-0, 50.636875, 253.832031)">C2_R</text>
     </g>
    </g>
    <g id="ytick_5">
     <g id="text_12">
      <text style="fill: #262626; font: 11px 'sans-serif'; text-anchor: end" x="50.636875" y="323.132031" transform="rotate(-0, 50.636875, 323.132031)">C3_L</text>
     </g>
    </g>
    <g id="ytick_6">
     <g id="text_13">
      <text style="fill: #262626; font: 11px 'sans-serif'; text-anchor: end" x="50.636875" y="392.432031" transform="rotate(-0, 50.636875, 392.432031)">C3_R</text>
     </g>
    </g>
    <g id="ytick_7">
     <g id="text_14">
      <text style="fill: #262626; font: 11px 'sans-serif'; text-anchor: end" x="50.636875" y="461.732031" transform="rotate(-0, 50.636875, 461.732031)">C5_L</text>
     </g>
    </g>
    <g id="ytick_8">
     <g id="text_15">
      <text style="fill: #262626; font: 11px 'sans-serif'; text-anchor: end" x="50.636875" y="531.032031" transform="rotate(-0, 50.636875, 531.032031)">C5_R</text>
     </g>
    </g>
    <g id="text_16">
     <text style="fill: #262626; font: 12px 'sans-serif'; text-anchor: middle" x="16.318125" y="284.4" transform="rotate(-90, 16.318125, 284.4)">Criterion</text>
    </g>
   </g>
   <g id="line2d_7">
    <path d="M 537.335199 15.8625 
L 715.809836 15.8625 
" clip-path="url(#pd3b67ff0b7)" style="fill: none; stroke: #1b9e77; stroke-width: 2.7; stroke-linecap: round"/>
   </g>
   <g id="line2d_8">
    <path d="M 575.912893 85.1625 
L 736.408734 85.1625 
" clip-path="url(#pd3b67ff0b7)" style="fill: none; stroke: #1b9e77; stroke-width: 2.7; stroke-linecap: round"/>
   </g>
   <g id="line2d_9">
    <path d="M 491.250142 154.4625 
L 693.799291 154.4625 
" clip-path="url(#pd3b67ff0b7)" style="fill: none; stroke: #1b9e77; stroke-width: 2.7; stroke-linecap: round"/>
   </g>
   <g id="line2d_10">
    <path d="M 405.520061 223.7625 
L 646.575547 223.7625 
" clip-path="url(#pd3b67ff0b7)" style="fill: none; stroke: #1b9e77; stroke-width: 2.7; stroke-linecap: round"/>
   </g>
   <g id="line2d_11">
    <path d="M 565.164714 293.0625 
L 676.335499 293.0625 
" clip-path="url(#pd3b67ff0b7)" style="fill: none; stroke: #1b9e77; stroke-width: 2.7; stroke-linecap: round"/>
   </g>
   <g id="line2d_12">
    <path d="M 559.658101 362.3625 
L 717.755491 362.3625 
" clip-path="url(#pd3b67ff0b7)" style="fill: none; stroke: #1b9e77; stroke-width: 2.7; stroke-linecap: round"/>
   </g>
   <g id="line2d_13">
    <path d="M 568.274257 431.6625 
L 749.987096 431.6625 
" clip-path="url(#pd3b67ff0b7)" style="fill: none; stroke: #1b9e77; stroke-width: 2.7; stroke-linecap: round"/>
   </g>
   <g id="line2d_14">
    <path d="M 426.315162 500.9625 
L 749.929394 500.9625 
" clip-path="url(#pd3b67ff0b7)" style="fill: none; stroke: #1b9e77; stroke-width: 2.7; stroke-linecap: round"/>
   </g>
   <g id="PathCollection_1">
    <defs>
     <path id="m76c85b5ad5" d="M 0 3.383948 
C 0.897434 3.383948 1.758231 3.027394 2.392813 2.392813 
C 3.027394 1.758231 3.383948 0.897434 3.383948 0 
C 3.383948 -0.897434 3.027394 -1.758231 2.392813 -2.392813 
C 1.758231 -3.027394 0.897434 -3.383948 0 -3.383948 
C -0.897434 -3.383948 -1.758231 -3.027394 -2.392813 -2.392813 
C -3.027394 -1.758231 -3.383948 -0.897434 -3.383948 0 
C -3.383948 0.897434 -3.027394 1.758231 -2.392813 2.392813 
C -1.758231 3.027394 -0.897434 3.383948 0 3.383948 
z
" style="stroke: #1b9e77; stroke-width: 2.025"/>
    </defs>
    <g clip-path="url(#pd3b67ff0b7)">
     <use xlink:href="#m76c85b5ad5" x="626.572517" y="15.8625" style="fill: #1b9e77; stroke: #1b9e77; stroke-width: 2.025"/>
     <use xlink:href="#m76c85b5ad5" x="656.160814" y="85.1625" style="fill: #1b9e77; stroke: #1b9e77; stroke-width: 2.025"/>
     <use xlink:href="#m76c85b5ad5" x="592.524716" y="154.4625" style="fill: #1b9e77; stroke: #1b9e77; stroke-width: 2.025"/>
     <use xlink:href="#m76c85b5ad5" x="526.047804" y="223.7625" style="fill: #1b9e77; stroke: #1b9e77; stroke-width: 2.025"/>
     <use xlink:href="#m76c85b5ad5" x="620.750107" y="293.0625" style="fill: #1b9e77; stroke: #1b9e77; stroke-width: 2.025"/>
     <use xlink:href="#m76c85b5ad5" x="638.706796" y="362.3625" style="fill: #1b9e77; stroke: #1b9e77; stroke-width: 2.025"/>
     <use xlink:href="#m76c85b5ad5" x="659.130677" y="431.6625" style="fill: #1b9e77; stroke: #1b9e77; stroke-width: 2.025"/>
     <use xlink:href="#m76c85b5ad5" x="588.122278" y="500.9625" style="fill: #1b9e77; stroke: #1b9e77; stroke-width: 2.025"/>
    </g>
   </g>
   <g id="line2d_15">
    <path d="M 384.861759 28.85625 
L 637.229162 28.85625 
" clip-path="url(#pd3b67ff0b7)" style="fill: none; stroke: #d95f02; stroke-width: 2.7; stroke-linecap: round"/>
   </g>
   <g id="line2d_16">
    <path d="M 553.402218 98.15625 
L 720.86716 98.15625 
" clip-path="url(#pd3b67ff0b7)" style="fill: none; stroke: #d95f02; stroke-width: 2.7; stroke-linecap: round"/>
   </g>
   <g id="line2d_17">
    <path d="M 441.498923 167.45625 
L 679.857301 167.45625 
" clip-path="url(#pd3b67ff0b7)" style="fill: none; stroke: #d95f02; stroke-width: 2.7; stroke-linecap: round"/>
   </g>
   <g id="line2d_18">
    <path d="M 355.674192 236.75625 
L 629.96082 236.75625 
" clip-path="url(#pd3b67ff0b7)" style="fill: none; stroke: #d95f02; stroke-width: 2.7; stroke-linecap: round"/>
   </g>
   <g id="line2d_19">
    <path d="M 439.04309 306.05625 
L 628.312645 306.05625 
" clip-path="url(#pd3b67ff0b7)" style="fill: none; stroke: #d95f02; stroke-width: 2.7; stroke-linecap: round"/>
   </g>
   <g id="line2d_20">
    <path d="M 489.453052 375.35625 
L 646.338247 375.35625 
" clip-path="url(#pd3b67ff0b7)" style="fill: none; stroke: #d95f02; stroke-width: 2.7; stroke-linecap: round"/>
   </g>
   <g id="line2d_21">
    <path d="M 503.628186 444.65625 
L 743.901088 444.65625 
" clip-path="url(#pd3b67ff0b7)" style="fill: none; stroke: #d95f02; stroke-width: 2.7; stroke-linecap: round"/>
   </g>
   <g id="line2d_22">
    <path d="M 479.973011 513.95625 
L 754.223125 513.95625 
" clip-path="url(#pd3b67ff0b7)" style="fill: none; stroke: #d95f02; stroke-width: 2.7; stroke-linecap: round"/>
   </g>
   <g id="PathCollection_2">
    <defs>
     <path id="mdf994a6e48" d="M 0 3.383948 
C 0.897434 3.383948 1.758231 3.027394 2.392813 2.392813 
C 3.027394 1.758231 3.383948 0.897434 3.383948 0 
C 3.383948 -0.897434 3.027394 -1.758231 2.392813 -2.392813 
C 1.758231 -3.027394 0.897434 -3.383948 0 -3.383948 
C -0.897434 -3.383948 -1.758231 -3.027394 -2.392813 -2.392813 
C -3.027394 -1.758231 -3.383948 -0.897434 -3.383948 0 
C -3.383948 0.897434 -3.027394 1.758231 -2.392813 2.392813 
C -1.758231 3.027394 -0.897434 3.383948 0 3.383948 
z
" style="stroke: #d95f02; stroke-width: 2.025"/>
    </defs>
    <g clip-path="url(#pd3b67ff0b7)">
     <use xlink:href="#mdf994a6e48" x="511.045461" y="28.85625" style="fill: #d95f02; stroke: #d95f02; stroke-width: 2.025"/>
     <use xlink:href="#mdf994a6e48" x="637.134689" y="98.15625" style="fill: #d95f02; stroke: #d95f02; stroke-width: 2.025"/>
     <use xlink:href="#mdf994a6e48" x="560.678112" y="167.45625" style="fill: #d95f02; stroke: #d95f02; stroke-width: 2.025"/>
     <use xlink:href="#mdf994a6e48" x="492.817506" y="236.75625" style="fill: #d95f02; stroke: #d95f02; stroke-width: 2.025"/>
     <use xlink:href="#mdf994a6e48" x="533.677867" y="306.05625" style="fill: #d95f02; stroke: #d95f02; stroke-width: 2.025"/>
     <use xlink:href="#mdf994a6e48" x="567.895649" y="375.35625" style="fill: #d95f02; stroke: #d95f02; stroke-width: 2.025"/>
     <use xlink:href="#mdf994a6e48" x="623.764637" y="444.65625" style="fill: #d95f02; stroke: #d95f02; stroke-width: 2.025"/>
     <use xlink:href="#mdf994a6e48" x="617.098068" y="513.95625" style="fill: #d95f02; stroke: #d95f02; stroke-width: 2.025"/>
    </g>
   </g>
   <g id="patch_3">
    <path d="M 60.136875 561.6 
L 60.136875 7.2 
" style="fill: none; stroke: #ffffff; stroke-width: 1.25; stroke-linejoin: miter; stroke-linecap: square"/>
   </g>
   <g id="patch_4">
    <path d="M 841.336875 561.6 
L 841.336875 7.2 
" style="fill: none; stroke: #ffffff; stroke-width: 1.25; stroke-linejoin: miter; stroke-linecap: square"/>
   </g>
   <g id="patch_5">
    <path d="M 60.136875 561.6 
L 841.336875 561.6 
" style="fill: none; stroke: #ffffff; stroke-width: 1.25; stroke-linejoin: miter; stroke-linecap: square"/>
   </g>
   <g id="patch_6">
    <path d="M 60.136875 7.2 
L 841.336875 7.2 
" style="fill: none; stroke: #ffffff; stroke-width: 1.25; stroke-linejoin: miter; stroke-linecap: square"/>
   </g>
   <g id="line2d_23">
    <path d="M 416.710629 41.85 
L 483.590112 41.85 
" clip-path="url(#pd3b67ff0b7)" style="fill: none; stroke: #7570b3; stroke-width: 2.7; stroke-linecap: round"/>
   </g>
   <g id="line2d_24">
    <path d="M 271.504852 111.15 
L 341.301456 111.15 
" clip-path="url(#pd3b67ff0b7)" style="fill: none; stroke: #7570b3; stroke-width: 2.7; stroke-linecap: round"/>
   </g>
   <g id="line2d_25">
    <path d="M 492.517495 180.45 
L 552.127933 180.45 
" clip-path="url(#pd3b67ff0b7)" style="fill: none; stroke: #7570b3; stroke-width: 2.7; stroke-linecap: round"/>
   </g>
   <g id="line2d_26">
    <path d="M 412.648298 249.75 
L 481.726382 249.75 
" clip-path="url(#pd3b67ff0b7)" style="fill: none; stroke: #7570b3; stroke-width: 2.7; stroke-linecap: round"/>
   </g>
   <g id="line2d_27">
    <path d="M 518.688282 319.05 
L 573.903867 319.05 
" clip-path="url(#pd3b67ff0b7)" style="fill: none; stroke: #7570b3; stroke-width: 2.7; stroke-linecap: round"/>
   </g>
   <g id="line2d_28">
    <path d="M 412.115776 388.35 
L 485.330827 388.35 
" clip-path="url(#pd3b67ff0b7)" style="fill: none; stroke: #7570b3; stroke-width: 2.7; stroke-linecap: round"/>
   </g>
   <g id="line2d_29">
    <path d="M 289.854304 457.65 
L 355.414992 457.65 
" clip-path="url(#pd3b67ff0b7)" style="fill: none; stroke: #7570b3; stroke-width: 2.7; stroke-linecap: round"/>
   </g>
   <g id="line2d_30">
    <path d="M 197.01758 526.95 
L 298.116839 526.95 
" clip-path="url(#pd3b67ff0b7)" style="fill: none; stroke: #7570b3; stroke-width: 2.7; stroke-linecap: round"/>
   </g>
   <g id="PathCollection_3">
    <defs>
     <path id="m849faa3021" d="M 0 3.383948 
C 0.897434 3.383948 1.758231 3.027394 2.392813 2.392813 
C 3.027394 1.758231 3.383948 0.897434 3.383948 0 
C 3.383948 -0.897434 3.027394 -1.758231 2.392813 -2.392813 
C 1.758231 -3.027394 0.897434 -3.383948 0 -3.383948 
C -0.897434 -3.383948 -1.758231 -3.027394 -2.392813 -2.392813 
C -3.027394 -1.758231 -3.383948 -0.897434 -3.383948 0 
C -3.383948 0.897434 -3.027394 1.758231 -2.392813 2.392813 
C -1.758231 3.027394 -0.897434 3.383948 0 3.383948 
z
" style="stroke: #7570b3; stroke-width: 2.025"/>
    </defs>
    <g clip-path="url(#pd3b67ff0b7)">
     <use xlink:href="#m849faa3021" x="450.150371" y="41.85" style="fill: #7570b3; stroke: #7570b3; stroke-width: 2.025"/>
     <use xlink:href="#m849faa3021" x="306.403154" y="111.15" style="fill: #7570b3; stroke: #7570b3; stroke-width: 2.025"/>
     <use xlink:href="#m849faa3021" x="522.322714" y="180.45" style="fill: #7570b3; stroke: #7570b3; stroke-width: 2.025"/>
     <use xlink:href="#m849faa3021" x="447.18734" y="249.75" style="fill: #7570b3; stroke: #7570b3; stroke-width: 2.025"/>
     <use xlink:href="#m849faa3021" x="546.296075" y="319.05" style="fill: #7570b3; stroke: #7570b3; stroke-width: 2.025"/>
     <use xlink:href="#m849faa3021" x="448.723301" y="388.35" style="fill: #7570b3; stroke: #7570b3; stroke-width: 2.025"/>
     <use xlink:href="#m849faa3021" x="322.634648" y="457.65" style="fill: #7570b3; stroke: #7570b3; stroke-width: 2.025"/>
     <use xlink:href="#m849faa3021" x="247.567209" y="526.95" style="fill: #7570b3; stroke: #7570b3; stroke-width: 2.025"/>
    </g>
   </g>
   <g id="line2d_31">
    <path d="M 452.029812 54.84375 
L 515.812624 54.84375 
" clip-path="url(#pd3b67ff0b7)" style="fill: none; stroke: #e7298a; stroke-width: 2.7; stroke-linecap: round"/>
   </g>
   <g id="line2d_32">
    <path d="M 298.166284 124.14375 
L 367.354229 124.14375 
" clip-path="url(#pd3b67ff0b7)" style="fill: none; stroke: #e7298a; stroke-width: 2.7; stroke-linecap: round"/>
   </g>
   <g id="line2d_33">
    <path d="M 486.413161 193.44375 
L 546.653086 193.44375 
" clip-path="url(#pd3b67ff0b7)" style="fill: none; stroke: #e7298a; stroke-width: 2.7; stroke-linecap: round"/>
   </g>
   <g id="line2d_34">
    <path d="M 427.323075 262.74375 
L 490.273538 262.74375 
" clip-path="url(#pd3b67ff0b7)" style="fill: none; stroke: #e7298a; stroke-width: 2.7; stroke-linecap: round"/>
   </g>
   <g id="line2d_35">
    <path d="M 530.459042 332.04375 
L 584.09643 332.04375 
" clip-path="url(#pd3b67ff0b7)" style="fill: none; stroke: #e7298a; stroke-width: 2.7; stroke-linecap: round"/>
   </g>
   <g id="line2d_36">
    <path d="M 456.793679 401.34375 
L 522.703434 401.34375 
" clip-path="url(#pd3b67ff0b7)" style="fill: none; stroke: #e7298a; stroke-width: 2.7; stroke-linecap: round"/>
   </g>
   <g id="line2d_37">
    <path d="M 269.764068 470.64375 
L 333.336899 470.64375 
" clip-path="url(#pd3b67ff0b7)" style="fill: none; stroke: #e7298a; stroke-width: 2.7; stroke-linecap: round"/>
   </g>
   <g id="line2d_38">
    <path d="M 214.915313 539.94375 
L 306.068034 539.94375 
" clip-path="url(#pd3b67ff0b7)" style="fill: none; stroke: #e7298a; stroke-width: 2.7; stroke-linecap: round"/>
   </g>
   <g id="PathCollection_4">
    <defs>
     <path id="m8c7fe9cbca" d="M 0 3.383948 
C 0.897434 3.383948 1.758231 3.027394 2.392813 2.392813 
C 3.027394 1.758231 3.383948 0.897434 3.383948 0 
C 3.383948 -0.897434 3.027394 -1.758231 2.392813 -2.392813 
C 1.758231 -3.027394 0.897434 -3.383948 0 -3.383948 
C -0.897434 -3.383948 -1.758231 -3.027394 -2.392813 -2.392813 
C -3.027394 -1.758231 -3.383948 -0.897434 -3.383948 0 
C -3.383948 0.897434 -3.027394 1.758231 -2.392813 2.392813 
C -1.758231 3.027394 -0.897434 3.383948 0 3.383948 
z
" style="stroke: #e7298a; stroke-width: 2.025"/>
    </defs>
    <g clip-path="url(#pd3b67ff0b7)">
     <use xlink:href="#m8c7fe9cbca" x="483.921218" y="54.84375" style="fill: #e7298a; stroke: #e7298a; stroke-width: 2.025"/>
     <use xlink:href="#m8c7fe9cbca" x="332.760257" y="124.14375" style="fill: #e7298a; stroke: #e7298a; stroke-width: 2.025"/>
     <use xlink:href="#m8c7fe9cbca" x="516.533123" y="193.44375" style="fill: #e7298a; stroke: #e7298a; stroke-width: 2.025"/>
     <use xlink:href="#m8c7fe9cbca" x="458.798306" y="262.74375" style="fill: #e7298a; stroke: #e7298a; stroke-width: 2.025"/>
     <use xlink:href="#m8c7fe9cbca" x="557.277736" y="332.04375" style="fill: #e7298a; stroke: #e7298a; stroke-width: 2.025"/>
     <use xlink:href="#m8c7fe9cbca" x="489.748557" y="401.34375" style="fill: #e7298a; stroke: #e7298a; stroke-width: 2.025"/>
     <use xlink:href="#m8c7fe9cbca" x="301.550483" y="470.64375" style="fill: #e7298a; stroke: #e7298a; stroke-width: 2.025"/>
     <use xlink:href="#m8c7fe9cbca" x="260.491673" y="539.94375" style="fill: #e7298a; stroke: #e7298a; stroke-width: 2.025"/>
    </g>
   </g>
   <g id="line2d_39">
    <path d="M 445.497172 67.8375 
L 509.348962 67.8375 
" clip-path="url(#pd3b67ff0b7)" style="fill: none; stroke: #66a61e; stroke-width: 2.7; stroke-linecap: round"/>
   </g>
   <g id="line2d_40">
    <path d="M 316.868489 137.1375 
L 385.401445 137.1375 
" clip-path="url(#pd3b67ff0b7)" style="fill: none; stroke: #66a61e; stroke-width: 2.7; stroke-linecap: round"/>
   </g>
   <g id="line2d_41">
    <path d="M 526.27172 206.4375 
L 584.537281 206.4375 
" clip-path="url(#pd3b67ff0b7)" style="fill: none; stroke: #66a61e; stroke-width: 2.7; stroke-linecap: round"/>
   </g>
   <g id="line2d_42">
    <path d="M 437.569164 275.7375 
L 498.430904 275.7375 
" clip-path="url(#pd3b67ff0b7)" style="fill: none; stroke: #66a61e; stroke-width: 2.7; stroke-linecap: round"/>
   </g>
   <g id="line2d_43">
    <path d="M 492.637927 345.0375 
L 549.134203 345.0375 
" clip-path="url(#pd3b67ff0b7)" style="fill: none; stroke: #66a61e; stroke-width: 2.7; stroke-linecap: round"/>
   </g>
   <g id="line2d_44">
    <path d="M 451.805415 414.3375 
L 516.067702 414.3375 
" clip-path="url(#pd3b67ff0b7)" style="fill: none; stroke: #66a61e; stroke-width: 2.7; stroke-linecap: round"/>
   </g>
   <g id="line2d_45">
    <path d="M 251.631397 483.6375 
L 317.820594 483.6375 
" clip-path="url(#pd3b67ff0b7)" style="fill: none; stroke: #66a61e; stroke-width: 2.7; stroke-linecap: round"/>
   </g>
   <g id="line2d_46">
    <path d="M 225.334237 552.9375 
L 321.515644 552.9375 
" clip-path="url(#pd3b67ff0b7)" style="fill: none; stroke: #66a61e; stroke-width: 2.7; stroke-linecap: round"/>
   </g>
   <g id="PathCollection_5">
    <defs>
     <path id="m92e5ff847b" d="M 0 3.383948 
C 0.897434 3.383948 1.758231 3.027394 2.392813 2.392813 
C 3.027394 1.758231 3.383948 0.897434 3.383948 0 
C 3.383948 -0.897434 3.027394 -1.758231 2.392813 -2.392813 
C 1.758231 -3.027394 0.897434 -3.383948 0 -3.383948 
C -0.897434 -3.383948 -1.758231 -3.027394 -2.392813 -2.392813 
C -3.027394 -1.758231 -3.383948 -0.897434 -3.383948 0 
C -3.383948 0.897434 -3.027394 1.758231 -2.392813 2.392813 
C -1.758231 3.027394 -0.897434 3.383948 0 3.383948 
z
" style="stroke: #66a61e; stroke-width: 2.025"/>
    </defs>
    <g clip-path="url(#pd3b67ff0b7)">
     <use xlink:href="#m92e5ff847b" x="477.423067" y="67.8375" style="fill: #66a61e; stroke: #66a61e; stroke-width: 2.025"/>
     <use xlink:href="#m92e5ff847b" x="351.134967" y="137.1375" style="fill: #66a61e; stroke: #66a61e; stroke-width: 2.025"/>
     <use xlink:href="#m92e5ff847b" x="555.4045" y="206.4375" style="fill: #66a61e; stroke: #66a61e; stroke-width: 2.025"/>
     <use xlink:href="#m92e5ff847b" x="468.000034" y="275.7375" style="fill: #66a61e; stroke: #66a61e; stroke-width: 2.025"/>
     <use xlink:href="#m92e5ff847b" x="520.886065" y="345.0375" style="fill: #66a61e; stroke: #66a61e; stroke-width: 2.025"/>
     <use xlink:href="#m92e5ff847b" x="483.936559" y="414.3375" style="fill: #66a61e; stroke: #66a61e; stroke-width: 2.025"/>
     <use xlink:href="#m92e5ff847b" x="284.725996" y="483.6375" style="fill: #66a61e; stroke: #66a61e; stroke-width: 2.025"/>
     <use xlink:href="#m92e5ff847b" x="273.424941" y="552.9375" style="fill: #66a61e; stroke: #66a61e; stroke-width: 2.025"/>
    </g>
   </g>
   <g id="legend_1">
    <g id="patch_7">
     <path d="M 67.836875 113.843438 
L 211.510625 113.843438 
Q 213.710625 113.843438 213.710625 111.643438 
L 213.710625 14.9 
Q 213.710625 12.7 211.510625 12.7 
L 67.836875 12.7 
Q 65.636875 12.7 65.636875 14.9 
L 65.636875 111.643438 
Q 65.636875 113.843438 67.836875 113.843438 
z
" style="fill: #eaeaf2; opacity: 0.8; stroke: #cccccc; stroke-linejoin: miter"/>
    </g>
    <g id="text_17">
     <text style="fill: #262626; font: 12px 'sans-serif'; text-anchor: start" x="116.002813" y="26.218125" transform="rotate(-0, 116.002813, 26.218125)">Training</text>
    </g>
    <g id="PathCollection_6">
     <g>
      <use xlink:href="#m76c85b5ad5" x="81.036875" y="39.684531" style="fill: #1b9e77; stroke: #1b9e77; stroke-width: 2.025"/>
     </g>
    </g>
    <g id="text_18">
     <text style="fill: #262626; font: 11px 'sans-serif'; text-anchor: start" x="100.836875" y="42.572031" transform="rotate(-0, 100.836875, 42.572031)">Inter-rater</text>
    </g>
    <g id="PathCollection_7">
     <g>
      <use xlink:href="#mdf994a6e48" x="81.036875" y="55.830469" style="fill: #d95f02; stroke: #d95f02; stroke-width: 2.025"/>
     </g>
    </g>
    <g id="text_19">
     <text style="fill: #262626; font: 11px 'sans-serif'; text-anchor: start" x="100.836875" y="58.717969" transform="rotate(-0, 100.836875, 58.717969)">Intra-rater</text>
    </g>
    <g id="PathCollection_8">
     <g>
      <use xlink:href="#m849faa3021" x="81.036875" y="71.976406" style="fill: #7570b3; stroke: #7570b3; stroke-width: 2.025"/>
     </g>
    </g>
    <g id="text_20">
     <text style="fill: #262626; font: 11px 'sans-serif'; text-anchor: start" x="100.836875" y="74.863906" transform="rotate(-0, 100.836875, 74.863906)">IMAGEN</text>
    </g>
    <g id="PathCollection_9">
     <g>
      <use xlink:href="#m8c7fe9cbca" x="81.036875" y="88.122344" style="fill: #e7298a; stroke: #e7298a; stroke-width: 2.025"/>
     </g>
    </g>
    <g id="text_21">
     <text style="fill: #262626; font: 11px 'sans-serif'; text-anchor: start" x="100.836875" y="91.009844" transform="rotate(-0, 100.836875, 91.009844)">IMAGEN,QTIM,QTAB</text>
    </g>
    <g id="PathCollection_10">
     <g>
      <use xlink:href="#m92e5ff847b" x="81.036875" y="104.268281" style="fill: #66a61e; stroke: #66a61e; stroke-width: 2.025"/>
     </g>
    </g>
    <g id="text_22">
     <text style="fill: #262626; font: 11px 'sans-serif'; text-anchor: start" x="100.836875" y="107.155781" transform="rotate(-0, 100.836875, 107.155781)">ALL</text>
    </g>
   </g>
  </g>
 </g>
 <defs>
  <clipPath id="pd3b67ff0b7">
   <rect x="60.136875" y="7.2" width="781.2" height="554.4"/>
  </clipPath>
 </defs>
</svg>
